<?xml version="1.0" standalone="no"?>
<!DOCTYPE svg PUBLIC "-//W3C//DTD SVG 20010904//EN"
 "http://www.w3.org/TR/2001/REC-SVG-20010904/DTD/svg10.dtd">
<svg version="1.0" xmlns="http://www.w3.org/2000/svg"
 width="500.000000pt" height="500.000000pt" viewBox="0 0 500.000000 500.000000"
 preserveAspectRatio="xMidYMid meet">
<metadata>
Created by potrace 1.14, written by Peter Selinger 2001-2017
</metadata>
<g transform="translate(0.000000,500.000000) scale(0.100000,-0.100000)"
fill="#000000" stroke="none">
<path d="M2697 4664 c-2 -3 -38 -7 -78 -10 -78 -6 -151 -34 -181 -69 -10 -11
-17 -16 -18 -11 0 5 -8 2 -18 -7 -17 -15 -52 -23 -134 -29 -16 -1 -28 -5 -28
-8 0 -3 -9 -6 -21 -7 -11 -1 -30 -14 -41 -28 -27 -34 -132 -86 -183 -90 -75
-6 -155 -58 -155 -100 0 -17 -23 -25 -85 -32 -27 -3 -55 -9 -61 -14 -6 -5 -14
-6 -17 -3 -3 3 -16 -1 -29 -10 -12 -9 -30 -16 -39 -16 -20 0 -160 -71 -196
-100 -14 -11 -22 -20 -18 -20 4 0 2 -6 -4 -14 -6 -7 -8 -22 -4 -31 4 -13 3
-16 -5 -11 -8 4 -12 0 -12 -11 0 -18 -30 -59 -85 -118 -16 -18 -48 -54 -70
-80 -22 -26 -62 -68 -90 -94 -94 -88 -105 -100 -105 -111 0 -6 16 -25 35 -43
19 -17 35 -38 35 -44 0 -7 4 -13 10 -13 14 0 6 -141 -10 -170 -8 -14 -15 -29
-16 -35 -1 -5 -5 -23 -9 -40 -4 -16 -7 -38 -6 -48 0 -10 -5 -15 -11 -11 -7 4
-8 2 -4 -4 4 -7 -3 -46 -14 -88 -30 -106 -31 -250 -4 -360 8 -32 17 -44 59
-82 16 -15 45 -42 63 -59 19 -18 38 -33 44 -33 5 0 7 -3 5 -7 -5 -10 121 -132
128 -125 3 3 5 0 5 -7 0 -7 4 -10 9 -7 5 3 12 -1 15 -10 8 -20 -3 -84 -14 -84
-4 0 -11 -11 -14 -25 -4 -14 -11 -23 -16 -20 -6 3 -10 0 -10 -8 0 -8 -7 -20
-15 -27 -9 -7 -13 -15 -11 -17 3 -3 -4 -14 -14 -26 -11 -11 -17 -24 -14 -28 2
-4 -1 -11 -7 -14 -5 -4 -8 -14 -5 -22 4 -8 1 -11 -5 -8 -6 4 -9 1 -8 -6 2 -14
-6 -41 -20 -69 -5 -8 -4 -25 0 -38 5 -12 4 -22 0 -22 -5 0 -5 -15 1 -32 16
-50 23 -61 43 -72 11 -6 31 -23 45 -37 35 -36 176 -129 195 -129 8 0 15 -3 15
-7 0 -9 48 -33 66 -33 7 0 14 -5 16 -10 2 -6 13 -12 26 -13 12 0 22 -5 22 -9
0 -4 3 -7 8 -6 15 5 52 -29 56 -53 3 -13 5 -24 6 -24 2 0 5 -16 13 -60 12 -65
45 -214 50 -222 3 -4 8 -28 11 -53 3 -25 12 -70 19 -101 8 -30 13 -65 12 -77
-1 -12 1 -22 5 -22 3 0 6 -20 5 -45 0 -25 2 -51 6 -57 4 -6 3 -22 -2 -35 -6
-15 -5 -23 2 -23 8 0 8 -4 2 -12 -5 -7 -10 -28 -12 -47 -2 -19 -8 -46 -14 -60
-5 -14 -10 -29 -9 -33 1 -4 -5 -19 -13 -34 -8 -15 -12 -31 -9 -36 3 -4 0 -8
-5 -8 -6 0 -11 -7 -11 -15 0 -8 -4 -15 -10 -15 -5 0 -10 -6 -10 -14 0 -17
-112 -136 -127 -136 -6 0 -14 -7 -17 -16 -3 -8 -9 -13 -13 -11 -11 7 -33 -19
-25 -29 4 -4 2 -4 -4 -1 -6 4 -19 -2 -29 -13 -10 -11 -22 -20 -27 -20 -4 0
-16 -8 -26 -18 -33 -31 -67 -57 -74 -57 -4 0 -14 -9 -22 -20 -9 -11 -16 -17
-16 -12 0 4 -9 -1 -19 -10 -28 -25 -45 -38 -56 -44 -5 -2 -21 -15 -36 -29 -14
-14 -50 -45 -78 -70 -29 -25 -67 -58 -83 -73 -17 -16 -48 -42 -71 -58 l-40
-29 2016 0 2015 0 -3 137 c-1 76 -4 354 -5 617 l-2 480 -27 25 c-49 46 -205
116 -301 135 -14 3 -52 12 -85 20 -33 8 -73 18 -90 22 -62 14 -220 13 -248 -1
-15 -8 -27 -12 -27 -10 0 2 -17 -3 -37 -12 -41 -17 -130 -26 -147 -15 -6 3
-18 7 -26 9 -8 1 -28 4 -45 7 -16 2 -46 5 -65 5 -26 1 -31 4 -22 13 7 7 8 17
2 28 -5 9 -7 28 -6 43 2 15 -1 27 -5 27 -5 0 -9 10 -9 23 0 13 -3 27 -7 31 -5
4 -8 11 -8 14 0 13 -29 97 -35 102 -8 6 -34 92 -32 103 1 4 -2 7 -7 7 -5 0
-14 13 -21 30 -7 16 -21 32 -31 35 -10 4 -19 10 -19 14 0 4 -19 17 -42 29 -55
27 -77 52 -68 78 4 10 5 23 2 29 -3 5 -7 36 -9 69 -2 33 -9 63 -14 67 -6 3
-10 9 -10 13 3 24 -5 39 -54 92 -30 32 -55 56 -55 52 0 -5 -8 0 -18 10 -10 9
-31 27 -45 39 -32 27 -34 44 -7 68 11 10 20 24 20 30 0 7 7 18 15 25 8 7 13
16 10 20 -3 5 1 14 8 22 7 7 12 23 11 36 -1 12 2 25 7 28 4 2 6 11 2 19 -3 9
1 15 8 15 9 1 7 6 -5 15 -18 14 -18 15 -2 15 11 0 15 4 10 13 -5 7 0 6 11 -3
10 -8 16 -10 12 -3 -4 6 -2 15 4 18 5 4 8 14 5 22 -4 8 -1 11 5 8 6 -4 13 2
16 14 3 12 10 21 15 21 5 0 6 5 3 10 -3 6 2 10 12 10 15 0 16 2 3 10 -12 8
-12 10 2 15 9 4 14 13 11 21 -3 8 1 14 8 14 7 0 9 3 6 7 -4 3 1 12 11 20 10 9
11 12 2 7 -10 -5 -8 1 5 16 15 17 17 24 7 27 -10 4 -8 9 5 20 10 8 11 11 3 7
-13 -7 -13 -5 -2 8 11 13 19 102 12 133 -1 6 -2 14 -1 18 1 5 4 23 7 40 8 49
12 72 14 72 1 0 3 9 5 19 2 10 8 22 13 25 5 3 12 16 16 29 4 12 12 22 17 22 6
0 7 5 4 10 -3 6 -3 10 2 10 9 0 39 61 35 73 -1 4 2 7 7 7 5 0 8 8 7 18 -2 9 2
20 8 24 8 5 7 8 -2 8 -10 0 -10 5 -2 20 6 11 8 24 6 29 -3 5 1 11 9 15 8 3 15
12 15 20 0 9 6 13 14 10 20 -8 30 14 14 33 -9 12 -9 15 -1 9 9 -5 12 0 11 18
-1 15 -6 26 -10 26 -4 0 -8 7 -8 16 0 9 -5 14 -11 12 -13 -4 -69 45 -69 61 0
6 -4 11 -8 11 -5 0 -9 8 -9 18 1 56 -5 81 -23 100 -12 12 -18 22 -14 22 3 0 0
10 -9 23 -14 21 -13 25 10 45 18 16 21 25 14 34 -67 79 -86 98 -99 98 -8 0
-12 3 -9 6 4 4 -12 17 -36 28 -23 12 -49 26 -57 31 -13 8 -28 12 -67 17 -7 1
-13 8 -13 16 0 8 -6 12 -14 9 -9 -4 -17 2 -21 14 -4 10 -11 19 -16 19 -5 0 -8
3 -7 8 4 13 -13 52 -22 52 -5 0 -7 6 -4 14 3 8 1 17 -5 21 -6 3 -11 15 -11 26
0 11 -4 17 -10 14 -6 -3 -7 1 -4 9 3 9 2 16 -3 16 -5 0 -10 6 -10 13 0 31 -67
106 -124 138 -16 9 -26 18 -24 21 3 2 -11 11 -30 18 -19 8 -35 18 -35 22 0 5
-8 8 -17 6 -10 -2 -17 2 -16 8 1 6 -8 11 -20 10 -12 -1 -28 4 -35 11 -17 17
-35 17 -26 1 4 -7 -2 -5 -13 5 -11 9 -23 14 -26 10 -4 -3 -7 -1 -7 6 0 7 -4
10 -9 7 -4 -3 -23 -1 -42 5 -36 11 -135 20 -142 13z"/>
</g>
</svg>
